<svg xmlns="http://www.w3.org/2000/svg" xmlns:xlink="http://www.w3.org/1999/xlink" width="976" zoomAndPan="magnify" viewBox="0 0 732 731.999995" height="976" preserveAspectRatio="xMidYMid meet" version="1.0"><defs><clipPath id="213ba2fdec"><path d="M 0 0 L 731.363281 0 L 731.363281 731.363281 L 0 731.363281 Z M 0 0 " clip-rule="nonzero"/></clipPath><clipPath id="c2888c1f85"><path d="M 365.679688 0 C 163.722656 0 0 163.722656 0 365.679688 C 0 567.640625 163.722656 731.363281 365.679688 731.363281 C 567.640625 731.363281 731.363281 567.640625 731.363281 365.679688 C 731.363281 163.722656 567.640625 0 365.679688 0 Z M 365.679688 0 " clip-rule="nonzero"/></clipPath><clipPath id="5bef208f20"><path d="M 0 0 L 731.363281 0 L 731.363281 731.363281 L 0 731.363281 Z M 0 0 " clip-rule="nonzero"/></clipPath><clipPath id="8394917a76"><path d="M 365.679688 0 C 163.722656 0 0 163.722656 0 365.679688 C 0 567.640625 163.722656 731.363281 365.679688 731.363281 C 567.640625 731.363281 731.363281 567.640625 731.363281 365.679688 C 731.363281 163.722656 567.640625 0 365.679688 0 Z M 365.679688 0 " clip-rule="nonzero"/></clipPath><clipPath id="a384d2c5c1"><rect x="0" width="732" y="0" height="732"/></clipPath><clipPath id="83a1707bbd"><path d="M 103.152344 231 L 516 231 L 516 618 L 103.152344 618 Z M 103.152344 231 " clip-rule="nonzero"/></clipPath><clipPath id="e7e4a953fa"><path d="M 411 151 L 703.152344 151 L 703.152344 542 L 411 542 Z M 411 151 " clip-rule="nonzero"/></clipPath></defs><g clip-path="url(#213ba2fdec)"><g clip-path="url(#c2888c1f85)"><g transform="matrix(1, 0, 0, 1, 0, -0.000000000000037713)"><g clip-path="url(#a384d2c5c1)"><g clip-path="url(#5bef208f20)"><g clip-path="url(#8394917a76)"><path fill="#66bb6a" d="M 0 0 L 731.363281 0 L 731.363281 731.363281 L 0 731.363281 Z M 0 0 " fill-opacity="1" fill-rule="nonzero"/></g></g></g></g></g></g><path fill="#ffffff" d="M 380.421875 397.21875 L 277.246094 397.21875 C 269.101562 397.21875 262.5 390.617188 262.5 382.472656 C 262.5 374.324219 269.101562 367.726562 277.246094 367.726562 L 380.421875 367.726562 C 388.570312 367.726562 395.167969 374.324219 395.167969 382.472656 C 395.167969 390.617188 388.570312 397.21875 380.421875 397.21875 Z M 380.421875 397.21875 " fill-opacity="1" fill-rule="nonzero"/><path fill="#ffffff" d="M 380.421875 330.046875 L 277.246094 330.046875 C 269.101562 330.046875 262.5 323.449219 262.5 315.300781 C 262.5 307.15625 269.101562 300.558594 277.246094 300.558594 L 380.421875 300.558594 C 388.570312 300.558594 395.167969 307.15625 395.167969 315.300781 C 395.167969 323.449219 388.570312 330.046875 380.421875 330.046875 Z M 380.421875 330.046875 " fill-opacity="1" fill-rule="nonzero"/><path fill="#ffffff" d="M 377.285156 463.613281 L 277.285156 463.613281 C 269.140625 463.613281 262.542969 457.011719 262.542969 448.867188 C 262.542969 440.71875 269.140625 434.121094 277.285156 434.121094 L 377.285156 434.121094 C 385.433594 434.121094 392.03125 440.71875 392.03125 448.867188 C 392.03125 457.011719 385.433594 463.613281 377.285156 463.613281 Z M 377.285156 463.613281 " fill-opacity="1" fill-rule="nonzero"/><path fill="#ffffff" d="M 306.410156 247.6875 C 302.625 247.6875 298.875 246.261719 295.984375 243.367188 L 266.207031 213.59375 C 260.421875 207.847656 260.421875 198.480469 266.207031 192.738281 C 271.949219 186.953125 281.320312 186.953125 287.0625 192.738281 L 306.410156 212.085938 L 344.78125 173.714844 C 350.523438 167.929688 359.894531 167.929688 365.636719 173.714844 C 371.421875 179.457031 371.421875 188.824219 365.636719 194.570312 L 316.839844 243.367188 C 313.945312 246.261719 310.199219 247.6875 306.410156 247.6875 Z M 306.410156 247.6875 " fill-opacity="1" fill-rule="nonzero"/><path fill="#ffffff" d="M 208.855469 261.414062 C 200.707031 261.414062 194.109375 254.8125 194.109375 246.667969 L 194.109375 145.933594 C 194.070312 112.738281 221.117188 85.730469 254.3125 85.730469 L 545.71875 85.730469 C 553.867188 85.730469 560.464844 92.328125 560.464844 100.476562 C 560.464844 108.621094 553.867188 115.222656 545.71875 115.222656 L 254.3125 115.222656 C 237.367188 115.222656 223.601562 128.988281 223.601562 145.933594 L 223.601562 246.625 C 223.601562 254.773438 217 261.371094 208.855469 261.371094 Z M 208.855469 261.414062 " fill-opacity="1" fill-rule="nonzero"/><path fill="#ffffff" d="M 208.855469 524.710938 C 200.707031 524.710938 194.109375 518.113281 194.109375 509.964844 L 194.109375 447.5625 C 194.109375 439.417969 200.707031 432.816406 208.855469 432.816406 C 217 432.816406 223.601562 439.417969 223.601562 447.5625 L 223.601562 509.964844 C 223.601562 518.113281 217 524.710938 208.855469 524.710938 Z M 208.855469 524.710938 " fill-opacity="1" fill-rule="nonzero"/><g clip-path="url(#83a1707bbd)"><path fill="#ffffff" d="M 454.761719 617.339844 L 163.398438 617.339844 C 130.199219 617.339844 103.152344 590.332031 103.152344 557.136719 L 103.152344 519.785156 C 103.152344 506.21875 114.191406 495.179688 127.753906 495.179688 L 399.488281 495.179688 C 413.050781 495.179688 424.089844 506.21875 424.089844 519.785156 L 424.089844 557.136719 C 424.089844 574.082031 437.855469 587.847656 454.800781 587.847656 C 471.746094 587.847656 485.515625 574.082031 485.515625 557.136719 L 485.515625 246.667969 C 485.515625 238.519531 492.113281 231.921875 500.261719 231.921875 C 508.40625 231.921875 515.007812 238.519531 515.007812 246.667969 L 515.007812 557.09375 C 515.007812 590.292969 488 617.296875 454.800781 617.296875 Z M 132.683594 524.710938 L 132.683594 557.136719 C 132.683594 574.082031 146.453125 587.847656 163.398438 587.847656 L 402.988281 587.847656 C 397.652344 578.847656 394.558594 568.335938 394.558594 557.136719 L 394.558594 524.710938 Z M 132.683594 524.710938 " fill-opacity="1" fill-rule="nonzero"/></g><path fill="#ffffff" d="M 551.625 216.199219 C 543.640625 216.199219 537.042969 209.804688 536.878906 201.78125 C 536.714844 193.632812 543.152344 186.871094 551.300781 186.707031 L 576.429688 186.136719 L 576.429688 145.933594 C 576.429688 128.988281 562.664062 115.222656 545.71875 115.222656 C 528.773438 115.222656 515.007812 128.988281 515.007812 145.933594 L 515.007812 167.972656 C 515.007812 176.117188 508.40625 182.714844 500.261719 182.714844 C 492.113281 182.714844 485.515625 176.117188 485.515625 167.972656 L 485.515625 145.933594 C 485.515625 112.738281 512.519531 85.730469 545.757812 85.730469 C 578.996094 85.730469 605.964844 112.738281 605.964844 145.933594 L 605.964844 190.902344 C 605.964844 204.183594 595.167969 215.179688 581.929688 215.507812 L 551.992188 216.199219 C 551.992188 216.199219 551.746094 216.199219 551.664062 216.199219 Z M 551.625 216.199219 " fill-opacity="1" fill-rule="nonzero"/><g clip-path="url(#e7e4a953fa)"><path fill="#ffffff" d="M 688.53125 541.332031 C 684.742188 541.332031 680.992188 539.90625 678.101562 537.011719 L 571.664062 430.578125 C 568.203125 427.117188 566.695312 422.1875 567.59375 417.378906 C 582.703125 338.234375 576.269531 298.765625 570.078125 287.890625 C 569.710938 287.238281 569.386719 286.585938 569.140625 285.894531 L 537.816406 204.753906 C 533.375 193.226562 522.988281 185.199219 510.6875 183.855469 C 491.828125 181.78125 465.800781 179.945312 449.222656 181.003906 C 445.679688 181.25 443.683594 183.328125 442.785156 184.589844 C 441.890625 185.8125 440.546875 188.417969 441.484375 191.882812 C 444.210938 201.984375 451.664062 210.292969 461.441406 214.082031 L 506.003906 233.101562 C 513.5 236.320312 516.960938 244.957031 513.785156 252.492188 C 510.566406 259.988281 501.890625 263.449219 494.394531 260.273438 L 450.28125 241.414062 C 432.234375 234.40625 418.140625 218.683594 412.96875 199.539062 C 409.996094 188.460938 412.113281 176.726562 418.792969 167.402344 C 425.472656 158.074219 435.902344 152.328125 447.347656 151.597656 C 465.800781 150.414062 493.824219 152.371094 513.90625 154.570312 C 537.207031 157.136719 556.878906 172.328125 565.351562 194.203125 L 596.308594 274.40625 C 609.019531 298.234375 609.589844 350.332031 597.980469 415.261719 L 698.917969 516.199219 C 704.699219 521.984375 704.699219 531.3125 698.917969 537.054688 C 696.023438 539.945312 692.277344 541.371094 688.488281 541.371094 Z M 688.53125 541.332031 " fill-opacity="1" fill-rule="nonzero"/></g><path fill="#ffffff" d="M 208.855469 329.316406 L 193.660156 329.316406 C 166.820312 329.316406 144.945312 307.480469 144.945312 280.597656 C 144.945312 253.714844 166.777344 231.882812 193.660156 231.882812 L 208.855469 231.882812 C 217 231.882812 223.601562 238.480469 223.601562 246.625 L 223.601562 314.527344 C 223.601562 322.675781 217 329.273438 208.855469 329.273438 Z M 193.660156 261.414062 C 183.070312 261.414062 174.476562 270.007812 174.476562 280.597656 C 174.476562 291.1875 183.070312 299.785156 193.660156 299.785156 L 194.070312 299.785156 Z M 193.660156 261.414062 " fill-opacity="1" fill-rule="nonzero"/><path fill="#ffffff" d="M 208.855469 226.832031 L 193.660156 226.832031 C 166.820312 226.832031 144.945312 204.996094 144.945312 178.113281 C 144.945312 151.230469 166.777344 129.394531 193.660156 129.394531 L 208.855469 129.394531 C 217 129.394531 223.601562 135.996094 223.601562 144.140625 L 223.601562 212.085938 C 223.601562 220.230469 217 226.832031 208.855469 226.832031 Z M 193.660156 158.929688 C 183.070312 158.929688 174.476562 167.523438 174.476562 178.113281 C 174.476562 188.703125 183.070312 197.296875 193.660156 197.296875 L 194.070312 197.296875 Z M 193.660156 158.929688 " fill-opacity="1" fill-rule="nonzero"/><path fill="#ffffff" d="M 208.855469 397.21875 L 193.660156 397.21875 C 166.820312 397.21875 144.945312 375.382812 144.945312 348.5 C 144.945312 321.617188 166.777344 299.785156 193.660156 299.785156 L 208.855469 299.785156 C 217 299.785156 223.601562 306.382812 223.601562 314.527344 L 223.601562 382.429688 C 223.601562 390.578125 217 397.175781 208.855469 397.175781 Z M 193.660156 329.316406 C 183.070312 329.316406 174.476562 337.910156 174.476562 348.5 C 174.476562 359.089844 183.070312 367.6875 193.660156 367.6875 L 194.070312 367.6875 Z M 193.660156 329.316406 " fill-opacity="1" fill-rule="nonzero"/><path fill="#ffffff" d="M 208.855469 465.078125 L 193.660156 465.078125 C 166.820312 465.078125 144.945312 443.246094 144.945312 416.363281 C 144.945312 389.476562 166.777344 367.644531 193.660156 367.644531 L 208.855469 367.644531 C 217 367.644531 223.601562 374.242188 223.601562 382.390625 L 223.601562 450.292969 C 223.601562 458.4375 217 465.039062 208.855469 465.039062 Z M 193.660156 397.175781 C 183.070312 397.175781 174.476562 405.769531 174.476562 416.363281 C 174.476562 426.953125 183.070312 435.546875 193.660156 435.546875 L 194.070312 435.546875 Z M 193.660156 397.175781 " fill-opacity="1" fill-rule="nonzero"/><path fill="#ffffff" d="M 444.007812 396.320312 L 431.625 396.320312 C 423.476562 396.320312 416.878906 389.722656 416.878906 381.574219 C 416.878906 373.429688 423.476562 366.832031 431.625 366.832031 L 444.007812 366.832031 C 452.15625 366.832031 458.753906 373.429688 458.753906 381.574219 C 458.753906 389.722656 452.15625 396.320312 444.007812 396.320312 Z M 444.007812 396.320312 " fill-opacity="1" fill-rule="nonzero"/><path fill="#ffffff" d="M 444.007812 463.613281 L 431.625 463.613281 C 423.476562 463.613281 416.878906 457.011719 416.878906 448.867188 C 416.878906 440.71875 423.476562 434.121094 431.625 434.121094 L 444.007812 434.121094 C 452.15625 434.121094 458.753906 440.71875 458.753906 448.867188 C 458.753906 457.011719 452.15625 463.613281 444.007812 463.613281 Z M 444.007812 463.613281 " fill-opacity="1" fill-rule="nonzero"/><path fill="#ffffff" d="M 444.007812 330.046875 L 431.625 330.046875 C 423.476562 330.046875 416.878906 323.449219 416.878906 315.300781 C 416.878906 307.15625 423.476562 300.558594 431.625 300.558594 L 444.007812 300.558594 C 452.15625 300.558594 458.753906 307.15625 458.753906 315.300781 C 458.753906 323.449219 452.15625 330.046875 444.007812 330.046875 Z M 444.007812 330.046875 " fill-opacity="1" fill-rule="nonzero"/></svg>